<svg fill="none" xmlns="http://www.w3.org/2000/svg" viewBox="0 0 129 444"><mask id="a" mask-type="alpha" maskUnits="userSpaceOnUse" x="0" y="0" width="367" height="444"><ellipse cx="183.362" cy="221.723" rx="119.806" ry="190.428" transform="rotate(-22.413 183.362 221.723)" fill="#4953BE"/></mask><g mask="url(#a)" fill="#4953BE"><path d="M93.8321 293.893l198.16567834-149.21843405 1.79968924 3.23637742L95.63178924 297.12937742zM87.743 282.943l198.16567834-149.21843405 1.79968924 3.23637742L89.54268924 286.17937742zM81.6541 271.993l198.16567834-149.21843405 1.79968924 3.23637742L83.45378924 275.22937742zM99.9211 304.843l198.16567834-149.21843405 1.79968924 3.23637742-198.16567834 149.21843405zM106.01 315.792l198.16567834-149.21843405 1.79968924 3.23637742-198.16567834 149.21843405zM112.099 326.742l198.16567834-149.21843405 1.79968924 3.23637742-198.16567834 149.21843405zM118.188 337.692l198.16567834-149.21843405 1.79968924 3.23637742-198.16567834 149.21843405zM125.231 364.226l198.16567834-149.21843405 1.79968924 3.23637742-198.16567834 149.21843405zM119.142 353.276l198.16567834-149.21843405 1.79968924 3.23637742-198.16567834 149.21843405zM57.9542 242.638L256.11987834 93.41956595l1.79968924 3.23637742L59.75388924 245.87437742zM51.8651 231.689L250.03077834 82.47056595l1.79968924 3.23637742L53.66478924 234.92537742zM45.7762 220.739L243.94187834 71.52056595l1.79968924 3.23637742L47.57588924 223.97537742zM64.0432 253.588l198.16567834-149.21843405 1.79968924 3.23637742L65.84288924 256.82437742zM70.1321 264.538l198.16567834-149.21843405 1.79968924 3.23637742L71.93178924 267.77437742z"/><path d="M76.2213 275.488l198.16567834-149.21843405 1.79968924 3.23637742L78.02098924 278.72437742zM82.3102 286.438l198.16567834-149.21843405 1.79968924 3.23637742L84.10988924 289.67437742zM95.4421 323.922l198.16567834-149.21843405 1.79968924 3.23637742L97.24178924 327.15837742zM89.353 312.972l198.16567834-149.21843405 1.79968924 3.23637742L91.15268924 316.20837742zM83.264 302.022l198.16567834-149.21843405 1.79968924 3.23637742L85.06368924 305.25837742zM101.531 334.872l198.16567834-149.21843405 1.79968924 3.23637742-198.16567834 149.21843405zM107.62 345.821l198.16567834-149.21843405 1.79968924 3.23637742-198.16567834 149.21843405zM113.709 356.771l198.16567834-149.21843405 1.79968924 3.23637742-198.16567834 149.21843405zM119.798 367.721l198.16567834-149.21843405 1.79968924 3.23637742-198.16567834 149.21843405zM-43.2728 100.408L154.89287834-48.81043405l1.79968924 3.23637742-198.16567834 149.21843405zM-49.3618 89.4584L148.80387834-59.76003405l1.79968924 3.23637742L-47.56211076 92.69477742zM-55.4507 78.5085L142.71497834-70.70993405l1.79968924 3.23637742L-53.65101076 81.74487742zM-37.1837 111.358L160.98197834-37.86043405l1.79968924 3.23637742-198.16567834 149.21843405zM-31.0948 122.308L167.07087834-26.91043405l1.79968924 3.23637742-198.16567834 149.21843405zM-25.0056 133.258L173.16007834-15.96043405l1.79968924 3.23637742-198.16567834 149.21843405zM-18.9167 144.208L179.24897834-5.01043405l1.79968924 3.23637742-198.16567834 149.21843405zM-5.78479 181.691L192.38088834 32.47256595l1.79968924 3.23637742L-3.98510076 184.92737742zM-11.874 170.742L186.29167834 21.52356595l1.79968924 3.23637742-198.16567834 149.21843405zM-17.9629 159.792L180.20277834 10.57356595l1.79968924 3.23637742-198.16567834 149.21843405zM.304138 192.641L198.46981634 43.42256595l1.79968924 3.23637742L2.10382724 195.87737742zM6.39307 203.591L204.55874834 54.37256595l1.79968924 3.23637742L8.19275924 206.82737742zM12.4822 214.541L210.64787834 65.32256595l1.79968924 3.23637742L14.28188924 217.77737742zM18.5712 225.491L216.73687834 76.27256595l1.79968924 3.23637742L20.37088924 228.72737742z"/></g></svg>