<svg fill="none" xmlns="http://www.w3.org/2000/svg" viewBox="0 0 170 329"><g opacity=".5"><mask id="a" mask-type="alpha" maskUnits="userSpaceOnUse" x="-197" y="0" width="367" height="444"><ellipse cx="-13.3624" cy="221.907" rx="119.806" ry="190.428" transform="rotate(-22.413 -13.3624 221.907)" fill="#4953BE"/></mask><g mask="url(#a)" fill="white"><path d="M-102.893 294.077L95.27267834 144.85856595l1.79968924 3.23637742-198.16567834 149.21843405zM-108.982 283.127L89.18367834 133.90856595l1.79968924 3.23637742-198.16567834 149.21843405zM-115.071 272.177L83.09467834 122.95856595l1.79968924 3.23637742-198.16567834 149.21843405zM-96.8038 305.026l198.16567834-149.21843405 1.79968924 3.23637742-198.16567834 149.21843405zM-90.7148 315.976l198.16567834-149.21843405 1.79968924 3.23637742-198.16567834 149.21843405zM-84.6257 326.926l198.16567834-149.21843405 1.79968924 3.23637742-198.16567834 149.21843405zM-78.5367 337.876l198.16567834-149.21843405 1.79968924 3.23637742-198.16567834 149.21843405zM-65.4048 375.36l198.16567834-149.21843405 1.79968924 3.23637742-198.16567834 149.21843405zM-71.494 364.41l198.16567834-149.21843405 1.79968924 3.23637742-198.16567834 149.21843405zM-77.5829 353.46l198.16567834-149.21843405 1.79968924 3.23637742-198.16567834 149.21843405zM-59.3159 386.31l198.16567834-149.21843405 1.79968924 3.23637742-198.16567834 149.21843405zM-53.2269 397.259l198.16567834-149.21843405 1.79968924 3.23637742-198.16567834 149.21843405zM-47.1378 408.209l198.16567834-149.21843405 1.79968924 3.23637742-198.16567834 149.21843405zM-41.0488 419.159l198.16567834-149.21843405 1.79968924 3.23637742-198.16567834 149.21843405zM14.9918 422.212l198.16567834-149.21843405 1.79968924 3.23637742L16.79148924 425.44837742zM8.90265 411.262l198.16567834-149.21843405 1.79968924 3.23637742L10.70233924 414.49837742zM2.81372 400.312l198.16567834-149.21843405 1.79968924 3.23637742L4.61340924 403.54837742zM21.0807 433.162l198.16567834-149.21843405 1.79968924 3.23637742L22.88038924 436.39837742zM27.1697 444.112l198.16567834-149.21843405 1.79968924 3.23637742L28.96938924 447.34837742zM33.2589 455.061l198.16567834-149.21843405 1.79968924 3.23637742L35.05858924 458.29737742zM39.3478 466.011l198.16567834-149.21843405 1.79968924 3.23637742L41.14748924 469.24737742zM-138.771 242.822L59.39467834 93.60356595l1.79968924 3.23637742-198.16567834 149.21843405zM-144.86 231.873L53.30567834 82.65456595l1.79968924 3.23637742-198.16567834 149.21843405zM-150.949 220.923L47.21667834 71.70456595l1.79968924 3.23637742-198.16567834 149.21843405zM-132.682 253.772L65.48367834 104.55356595l1.79968924 3.23637742-198.16567834 149.21843405zM-126.593 264.722L71.57267834 115.50356595l1.79968924 3.23637742-198.16567834 149.21843405z"/><path d="M-120.504 275.672L77.66167834 126.45356595l1.79968924 3.23637742-198.16567834 149.21843405zM-114.415 286.622L83.75067834 137.40356595l1.79968924 3.23637742-198.16567834 149.21843405zM-101.283 324.106L96.88267834 174.88756595l1.79968924 3.23637742-198.16567834 149.21843405zM-107.372 313.156L90.79367834 163.93756595l1.79968924 3.23637742-198.16567834 149.21843405zM-113.461 302.206L84.70467834 152.98756595l1.79968924 3.23637742-198.16567834 149.21843405zM-95.1938 335.055l198.16567834-149.21843405 1.79968924 3.23637742-198.16567834 149.21843405zM-89.1049 346.005l198.16567834-149.21843405 1.79968924 3.23637742-198.16567834 149.21843405zM-83.0157 356.955l198.16567834-149.21843405 1.79968924 3.23637742-198.16567834 149.21843405zM-76.9268 367.905l198.16567834-149.21843405 1.79968924 3.23637742-198.16567834 149.21843405zM-196.421 192.825L1.74467834 43.60656595l1.79968924 3.23637742-198.16567834 149.21843405zM-190.332 203.775L7.83367834 54.55656595l1.79968924 3.23637742-198.16567834 149.21843405zM-184.243 214.725L13.92267834 65.50656595l1.79968924 3.23637742-198.16567834 149.21843405zM-178.154 225.675L20.01167834 76.45656595l1.79968924 3.23637742-198.16567834 149.21843405z"/></g></g></svg>