<svg width="285" height="272" fill="none" xmlns="http://www.w3.org/2000/svg"><g opacity=".6"><mask id="a" mask-type="alpha" maskUnits="userSpaceOnUse" x="-54" y="48" width="281" height="354"><ellipse cx="86.6375" cy="224.907" rx="119.806" ry="190.428" transform="rotate(-29.3 86.6375 224.907)" fill="#4953BE"/></mask><g mask="url(#a)" fill="white"><path d="M-2.89282 297.077l198.16567834-149.21843405 1.79968924 3.23637742L-1.09313076 300.31337742zM-8.98193 286.127l198.16567834-149.21843405 1.79968924 3.23637742L-7.18224076 289.36337742zM-15.0708 275.177l198.16567834-149.21843405 1.79968924 3.23637742-198.16567834 149.21843405zM3.19629 308.026l198.16567834-149.21843405 1.79968924 3.23637742L4.99597924 311.26237742zM9.28516 318.976l198.16567834-149.21843405 1.79968924 3.23637742L11.08484924 322.21237742zM15.3743 329.926l198.16567834-149.21843405 1.79968924 3.23637742L17.17398924 333.16237742zM21.4634 340.876l198.16567834-149.21843405 1.79968924 3.23637742L23.26308924 344.11237742zM34.5952 378.36l198.16567834-149.21843405 1.79968924 3.23637742L36.39488924 381.59637742zM28.5061 367.41l198.16567834-149.21843405 1.79968924 3.23637742L30.30578924 370.64637742zM22.417 356.46l198.16567834-149.21843405 1.79968924 3.23637742L24.21668924 359.69637742zM40.6841 389.31l198.16567834-149.21843405 1.79968924 3.23637742L42.48378924 392.54637742zM46.7729 400.259l198.16567834-149.21843405 1.79968924 3.23637742L48.57258924 403.49537742zM52.8623 411.209l198.16567834-149.21843405 1.79968924 3.23637742L54.66198924 414.44537742zM108.903 414.262l198.16567834-149.21843405 1.79968924 3.23637742-198.16567834 149.21843405zM102.814 403.312l198.16567834-149.21843405 1.79968924 3.23637742-198.16567834 149.21843405zM-38.7708 245.822L159.39487834 96.60356595l1.79968924 3.23637742-198.16567834 149.21843405zM-44.8599 234.873L153.30577834 85.65456595l1.79968924 3.23637742-198.16567834 149.21843405zM-50.9487 223.923L147.21697834 74.70456595l1.79968924 3.23637742-198.16567834 149.21843405zM-32.6816 256.772l198.16567834-149.21843405 1.79968924 3.23637742-198.16567834 149.21843405zM-26.5928 267.722l198.16567834-149.21843405 1.79968924 3.23637742-198.16567834 149.21843405z"/><path d="M-20.5037 278.672l198.16567834-149.21843405 1.79968924 3.23637742-198.16567834 149.21843405zM-14.4148 289.622l198.16567834-149.21843405 1.79968924 3.23637742-198.16567834 149.21843405zM-1.28271 327.106l198.16567834-149.21843405 1.79968924 3.23637742L.51697924 330.34237742zM-7.37183 316.156l198.16567834-149.21843405 1.79968924 3.23637742L-5.57214076 319.39237742zM-13.4609 305.206l198.16567834-149.21843405 1.79968924 3.23637742-198.16567834 149.21843405zM4.80615 338.055l198.16567834-149.21843405 1.79968924 3.23637742L6.60583924 341.29137742zM10.895 349.005l198.16567834-149.21843405 1.79968924 3.23637742L12.69468924 352.24137742zM16.9844 359.955l198.16567834-149.21843405 1.79968924 3.23637742L18.78408924 363.19137742zM23.0732 370.905l198.16567834-149.21843405 1.79968924 3.23637742L24.87288924 374.14137742zM-139.998 103.592L58.16767834-45.62643405l1.79968924 3.23637742-198.16567834 149.21843405zM-146.087 92.6422L52.07867834-56.57623405l1.79968924 3.23637742-198.16567834 149.21843405zM-152.176 81.6924L45.98967834-67.52603405l1.79968924 3.23637742-198.16567834 149.21843405zM-133.908 114.542L64.25767834-34.67643405l1.79968924 3.23637742-198.16567834 149.21843405zM-127.82 125.492L70.34567834-23.72643405l1.79968924 3.23637742-198.16567834 149.21843405zM-121.73 136.442L76.43567834-12.77643405l1.79968924 3.23637742-198.16567834 149.21843405zM-115.642 147.391L82.52367834-1.82743405l1.79968924 3.23637742-198.16567834 149.21843405zM-102.51 184.875L95.65567834 35.65656595l1.79968924 3.23637742-198.16567834 149.21843405zM-108.599 173.925L89.56667834 24.70656595l1.79968924 3.23637742-198.16567834 149.21843405zM-114.688 162.976L83.47767834 13.75756595l1.79968924 3.23637742-198.16567834 149.21843405zM-96.4207 195.825L101.74497834 46.60656595l1.79968924 3.23637742-198.16567834 149.21843405zM-90.3318 206.775L107.83387834 57.55656595l1.79968924 3.23637742-198.16567834 149.21843405zM-84.2424 217.725L113.92327834 68.50656595l1.79968924 3.23637742-198.16567834 149.21843405zM-78.1536 228.675L120.01207834 79.45656595l1.79968924 3.23637742-198.16567834 149.21843405z"/></g></g></svg>